<mxfile host="app.diagrams.net" modified="2023-05-07T16:16:10.127Z" agent="Mozilla/5.0 (Windows NT 10.0; Win64; x64) AppleWebKit/537.36 (KHTML, like Gecko) Chrome/112.0.0.0 Safari/537.36" etag="1DVLXxSb8OuNjEEpdp5t" version="21.2.3" type="device">
  <diagram name="Página-1" id="ZBnBQVCePvw-N0LPPBPP">
    <mxGraphModel dx="1834" dy="764" grid="0" gridSize="10" guides="1" tooltips="1" connect="1" arrows="1" fold="1" page="0" pageScale="1" pageWidth="827" pageHeight="1169" math="0" shadow="0">
      <root>
        <mxCell id="0" />
        <mxCell id="1" parent="0" />
        <mxCell id="2D_hl_5wQOb8C5rat_Qo-2" value="" style="ellipse;whiteSpace=wrap;html=1;aspect=fixed;fillColor=#000000;" vertex="1" parent="1">
          <mxGeometry x="-220" y="609" width="36" height="36" as="geometry" />
        </mxCell>
        <mxCell id="2D_hl_5wQOb8C5rat_Qo-3" value="" style="endArrow=open;endFill=1;endSize=12;html=1;rounded=0;" edge="1" parent="1">
          <mxGeometry width="160" relative="1" as="geometry">
            <mxPoint x="-186" y="626.5" as="sourcePoint" />
            <mxPoint x="-26" y="626.5" as="targetPoint" />
          </mxGeometry>
        </mxCell>
        <mxCell id="2D_hl_5wQOb8C5rat_Qo-4" value="Criar uma nova venda?" style="text;html=1;align=center;verticalAlign=middle;resizable=0;points=[];autosize=1;strokeColor=none;fillColor=none;" vertex="1" parent="1">
          <mxGeometry x="-182" y="596" width="143" height="26" as="geometry" />
        </mxCell>
        <mxCell id="2D_hl_5wQOb8C5rat_Qo-6" value="" style="strokeWidth=2;html=1;shape=mxgraph.flowchart.decision;whiteSpace=wrap;" vertex="1" parent="1">
          <mxGeometry x="-22" y="607" width="43" height="40" as="geometry" />
        </mxCell>
        <mxCell id="2D_hl_5wQOb8C5rat_Qo-7" value="" style="endArrow=open;endFill=1;endSize=12;html=1;rounded=0;" edge="1" parent="1">
          <mxGeometry width="160" relative="1" as="geometry">
            <mxPoint x="21" y="626.5" as="sourcePoint" />
            <mxPoint x="155" y="627" as="targetPoint" />
          </mxGeometry>
        </mxCell>
        <mxCell id="2D_hl_5wQOb8C5rat_Qo-8" value="" style="endArrow=open;endFill=1;endSize=12;html=1;rounded=0;" edge="1" parent="1">
          <mxGeometry width="160" relative="1" as="geometry">
            <mxPoint x="-1" y="604" as="sourcePoint" />
            <mxPoint x="-1" y="489" as="targetPoint" />
          </mxGeometry>
        </mxCell>
        <mxCell id="2D_hl_5wQOb8C5rat_Qo-9" value="Sim" style="text;html=1;align=center;verticalAlign=middle;resizable=0;points=[];autosize=1;strokeColor=none;fillColor=none;" vertex="1" parent="1">
          <mxGeometry x="-7" y="536" width="39" height="26" as="geometry" />
        </mxCell>
        <mxCell id="2D_hl_5wQOb8C5rat_Qo-10" value="Não" style="text;html=1;align=center;verticalAlign=middle;resizable=0;points=[];autosize=1;strokeColor=none;fillColor=none;" vertex="1" parent="1">
          <mxGeometry x="65" y="602" width="40" height="26" as="geometry" />
        </mxCell>
        <mxCell id="2D_hl_5wQOb8C5rat_Qo-11" value="" style="strokeWidth=2;html=1;shape=mxgraph.flowchart.decision;whiteSpace=wrap;" vertex="1" parent="1">
          <mxGeometry x="-22" y="447" width="43" height="40" as="geometry" />
        </mxCell>
        <mxCell id="2D_hl_5wQOb8C5rat_Qo-12" value="Cliente cadastrado?" style="text;html=1;align=center;verticalAlign=middle;resizable=0;points=[];autosize=1;strokeColor=none;fillColor=none;" vertex="1" parent="1">
          <mxGeometry x="18.5" y="454" width="125" height="26" as="geometry" />
        </mxCell>
        <mxCell id="2D_hl_5wQOb8C5rat_Qo-14" value="" style="line;strokeWidth=1;fillColor=none;align=left;verticalAlign=middle;spacingTop=-1;spacingLeft=3;spacingRight=3;rotatable=0;labelPosition=right;points=[];portConstraint=eastwest;strokeColor=inherit;" vertex="1" parent="1">
          <mxGeometry x="-97" y="463" width="75" height="8" as="geometry" />
        </mxCell>
        <mxCell id="2D_hl_5wQOb8C5rat_Qo-15" value="" style="endArrow=open;endFill=1;endSize=12;html=1;rounded=0;" edge="1" parent="1">
          <mxGeometry width="160" relative="1" as="geometry">
            <mxPoint x="-97" y="467.5" as="sourcePoint" />
            <mxPoint x="-97" y="438" as="targetPoint" />
          </mxGeometry>
        </mxCell>
        <mxCell id="2D_hl_5wQOb8C5rat_Qo-16" value="Não" style="text;html=1;align=center;verticalAlign=middle;resizable=0;points=[];autosize=1;strokeColor=none;fillColor=none;" vertex="1" parent="1">
          <mxGeometry x="-77" y="469" width="40" height="26" as="geometry" />
        </mxCell>
        <mxCell id="2D_hl_5wQOb8C5rat_Qo-17" value="Cadastro de Cliente" style="rounded=1;whiteSpace=wrap;html=1;" vertex="1" parent="1">
          <mxGeometry x="-155" y="375" width="120" height="60" as="geometry" />
        </mxCell>
        <mxCell id="2D_hl_5wQOb8C5rat_Qo-18" value="" style="endArrow=open;endFill=1;endSize=12;html=1;rounded=0;" edge="1" parent="1">
          <mxGeometry width="160" relative="1" as="geometry">
            <mxPoint x="-1" y="445" as="sourcePoint" />
            <mxPoint x="-1" y="330" as="targetPoint" />
          </mxGeometry>
        </mxCell>
        <mxCell id="2D_hl_5wQOb8C5rat_Qo-19" value="Sim" style="text;html=1;align=center;verticalAlign=middle;resizable=0;points=[];autosize=1;strokeColor=none;fillColor=none;" vertex="1" parent="1">
          <mxGeometry x="-2" y="383" width="39" height="26" as="geometry" />
        </mxCell>
        <mxCell id="2D_hl_5wQOb8C5rat_Qo-20" value="" style="strokeWidth=2;html=1;shape=mxgraph.flowchart.decision;whiteSpace=wrap;" vertex="1" parent="1">
          <mxGeometry x="-22" y="290" width="43" height="40" as="geometry" />
        </mxCell>
        <mxCell id="2D_hl_5wQOb8C5rat_Qo-22" value="" style="endArrow=open;endFill=1;endSize=12;html=1;rounded=0;" edge="1" parent="1">
          <mxGeometry width="160" relative="1" as="geometry">
            <mxPoint x="-1" y="290" as="sourcePoint" />
            <mxPoint x="-1" y="175" as="targetPoint" />
          </mxGeometry>
        </mxCell>
        <mxCell id="2D_hl_5wQOb8C5rat_Qo-23" value="" style="strokeWidth=2;html=1;shape=mxgraph.flowchart.decision;whiteSpace=wrap;" vertex="1" parent="1">
          <mxGeometry x="-22" y="137" width="43" height="40" as="geometry" />
        </mxCell>
        <mxCell id="2D_hl_5wQOb8C5rat_Qo-26" value="" style="endArrow=none;html=1;rounded=0;" edge="1" parent="1">
          <mxGeometry width="50" height="50" relative="1" as="geometry">
            <mxPoint x="-97" y="375" as="sourcePoint" />
            <mxPoint x="-97" y="310" as="targetPoint" />
          </mxGeometry>
        </mxCell>
        <mxCell id="2D_hl_5wQOb8C5rat_Qo-27" value="" style="endArrow=open;endFill=1;endSize=12;html=1;rounded=0;" edge="1" parent="1">
          <mxGeometry width="160" relative="1" as="geometry">
            <mxPoint x="-96" y="310" as="sourcePoint" />
            <mxPoint x="-22" y="309.5" as="targetPoint" />
          </mxGeometry>
        </mxCell>
        <mxCell id="2D_hl_5wQOb8C5rat_Qo-28" value="Funcionário Cadastrado?" style="text;html=1;align=center;verticalAlign=middle;resizable=0;points=[];autosize=1;strokeColor=none;fillColor=none;" vertex="1" parent="1">
          <mxGeometry x="-171.5" y="144" width="153" height="26" as="geometry" />
        </mxCell>
        <mxCell id="2D_hl_5wQOb8C5rat_Qo-29" value="" style="endArrow=open;endFill=1;endSize=12;html=1;rounded=0;" edge="1" parent="1">
          <mxGeometry width="160" relative="1" as="geometry">
            <mxPoint x="21" y="156.5" as="sourcePoint" />
            <mxPoint x="155" y="157" as="targetPoint" />
          </mxGeometry>
        </mxCell>
        <mxCell id="2D_hl_5wQOb8C5rat_Qo-30" value="" style="endArrow=open;endFill=1;endSize=12;html=1;rounded=0;" edge="1" parent="1">
          <mxGeometry width="160" relative="1" as="geometry">
            <mxPoint x="-0.7000000000000002" y="137" as="sourcePoint" />
            <mxPoint x="-1" y="86" as="targetPoint" />
          </mxGeometry>
        </mxCell>
        <mxCell id="2D_hl_5wQOb8C5rat_Qo-31" value="Sim" style="text;html=1;align=center;verticalAlign=middle;resizable=0;points=[];autosize=1;strokeColor=none;fillColor=none;" vertex="1" parent="1">
          <mxGeometry x="59" y="134" width="39" height="26" as="geometry" />
        </mxCell>
        <mxCell id="2D_hl_5wQOb8C5rat_Qo-32" value="Não" style="text;html=1;align=center;verticalAlign=middle;resizable=0;points=[];autosize=1;strokeColor=none;fillColor=none;" vertex="1" parent="1">
          <mxGeometry x="-2" y="104" width="40" height="26" as="geometry" />
        </mxCell>
        <mxCell id="2D_hl_5wQOb8C5rat_Qo-33" value="Cadastro de Funcionário" style="rounded=1;whiteSpace=wrap;html=1;" vertex="1" parent="1">
          <mxGeometry x="-61" y="24" width="120" height="60" as="geometry" />
        </mxCell>
        <mxCell id="2D_hl_5wQOb8C5rat_Qo-34" value="" style="strokeWidth=2;html=1;shape=mxgraph.flowchart.decision;whiteSpace=wrap;" vertex="1" parent="1">
          <mxGeometry x="157" y="137" width="43" height="40" as="geometry" />
        </mxCell>
        <mxCell id="2D_hl_5wQOb8C5rat_Qo-35" value="" style="endArrow=open;endFill=1;endSize=12;html=1;rounded=0;" edge="1" parent="1">
          <mxGeometry width="160" relative="1" as="geometry">
            <mxPoint x="178" y="54" as="sourcePoint" />
            <mxPoint x="178.21" y="137" as="targetPoint" />
          </mxGeometry>
        </mxCell>
        <mxCell id="2D_hl_5wQOb8C5rat_Qo-36" value="" style="endArrow=none;html=1;rounded=0;" edge="1" parent="1">
          <mxGeometry width="50" height="50" relative="1" as="geometry">
            <mxPoint x="59" y="54" as="sourcePoint" />
            <mxPoint x="178" y="54" as="targetPoint" />
          </mxGeometry>
        </mxCell>
        <mxCell id="2D_hl_5wQOb8C5rat_Qo-37" value="" style="endArrow=open;endFill=1;endSize=12;html=1;rounded=0;" edge="1" parent="1">
          <mxGeometry width="160" relative="1" as="geometry">
            <mxPoint x="200" y="156.5" as="sourcePoint" />
            <mxPoint x="334" y="157" as="targetPoint" />
          </mxGeometry>
        </mxCell>
        <mxCell id="2D_hl_5wQOb8C5rat_Qo-38" value="" style="strokeWidth=2;html=1;shape=mxgraph.flowchart.decision;whiteSpace=wrap;" vertex="1" parent="1">
          <mxGeometry x="336" y="137" width="43" height="40" as="geometry" />
        </mxCell>
        <mxCell id="2D_hl_5wQOb8C5rat_Qo-39" value="Veículo cadastrado?" style="text;html=1;align=center;verticalAlign=middle;resizable=0;points=[];autosize=1;strokeColor=none;fillColor=none;" vertex="1" parent="1">
          <mxGeometry x="294" y="108" width="127" height="26" as="geometry" />
        </mxCell>
        <mxCell id="2D_hl_5wQOb8C5rat_Qo-40" value="" style="endArrow=open;endFill=1;endSize=12;html=1;rounded=0;" edge="1" parent="1">
          <mxGeometry width="160" relative="1" as="geometry">
            <mxPoint x="379" y="156.71" as="sourcePoint" />
            <mxPoint x="493" y="157" as="targetPoint" />
          </mxGeometry>
        </mxCell>
        <mxCell id="2D_hl_5wQOb8C5rat_Qo-41" value="Não" style="text;html=1;align=center;verticalAlign=middle;resizable=0;points=[];autosize=1;strokeColor=none;fillColor=none;" vertex="1" parent="1">
          <mxGeometry x="412" y="134" width="40" height="26" as="geometry" />
        </mxCell>
        <mxCell id="2D_hl_5wQOb8C5rat_Qo-42" value="Cadastro de Veículo" style="rounded=1;whiteSpace=wrap;html=1;" vertex="1" parent="1">
          <mxGeometry x="493" y="127" width="120" height="60" as="geometry" />
        </mxCell>
        <mxCell id="2D_hl_5wQOb8C5rat_Qo-43" value="" style="endArrow=open;endFill=1;endSize=12;html=1;rounded=0;" edge="1" parent="1">
          <mxGeometry width="160" relative="1" as="geometry">
            <mxPoint x="357.21" y="177" as="sourcePoint" />
            <mxPoint x="357" y="248" as="targetPoint" />
          </mxGeometry>
        </mxCell>
        <mxCell id="2D_hl_5wQOb8C5rat_Qo-44" value="" style="strokeWidth=2;html=1;shape=mxgraph.flowchart.decision;whiteSpace=wrap;" vertex="1" parent="1">
          <mxGeometry x="336" y="248" width="43" height="40" as="geometry" />
        </mxCell>
        <mxCell id="2D_hl_5wQOb8C5rat_Qo-45" value="Sim" style="text;html=1;align=center;verticalAlign=middle;resizable=0;points=[];autosize=1;strokeColor=none;fillColor=none;" vertex="1" parent="1">
          <mxGeometry x="318" y="193" width="39" height="26" as="geometry" />
        </mxCell>
        <mxCell id="2D_hl_5wQOb8C5rat_Qo-46" value="" style="endArrow=none;html=1;rounded=0;" edge="1" parent="1">
          <mxGeometry width="50" height="50" relative="1" as="geometry">
            <mxPoint x="552" y="268" as="sourcePoint" />
            <mxPoint x="552.71" y="187" as="targetPoint" />
          </mxGeometry>
        </mxCell>
        <mxCell id="2D_hl_5wQOb8C5rat_Qo-47" value="" style="endArrow=open;endFill=1;endSize=12;html=1;rounded=0;" edge="1" parent="1">
          <mxGeometry width="160" relative="1" as="geometry">
            <mxPoint x="552" y="268" as="sourcePoint" />
            <mxPoint x="379" y="268.21" as="targetPoint" />
          </mxGeometry>
        </mxCell>
        <mxCell id="2D_hl_5wQOb8C5rat_Qo-49" value="" style="endArrow=open;endFill=1;endSize=12;html=1;rounded=0;" edge="1" parent="1">
          <mxGeometry width="160" relative="1" as="geometry">
            <mxPoint x="357.21" y="288" as="sourcePoint" />
            <mxPoint x="357" y="359" as="targetPoint" />
          </mxGeometry>
        </mxCell>
        <mxCell id="2D_hl_5wQOb8C5rat_Qo-50" value="Operação de Venda" style="rounded=1;whiteSpace=wrap;html=1;" vertex="1" parent="1">
          <mxGeometry x="297.5" y="361" width="120" height="60" as="geometry" />
        </mxCell>
        <mxCell id="2D_hl_5wQOb8C5rat_Qo-51" value="Listar Vendas" style="rounded=1;whiteSpace=wrap;html=1;" vertex="1" parent="1">
          <mxGeometry x="157" y="597" width="120" height="60" as="geometry" />
        </mxCell>
        <mxCell id="2D_hl_5wQOb8C5rat_Qo-52" value="" style="endArrow=open;endFill=1;endSize=12;html=1;rounded=0;exitX=0;exitY=0.5;exitDx=0;exitDy=0;exitPerimeter=0;" edge="1" parent="1" source="2D_hl_5wQOb8C5rat_Qo-53">
          <mxGeometry width="160" relative="1" as="geometry">
            <mxPoint x="215" y="390" as="sourcePoint" />
            <mxPoint x="216.58" y="597" as="targetPoint" />
          </mxGeometry>
        </mxCell>
        <mxCell id="2D_hl_5wQOb8C5rat_Qo-53" value="" style="line;strokeWidth=1;fillColor=none;align=left;verticalAlign=middle;spacingTop=-1;spacingLeft=3;spacingRight=3;rotatable=0;labelPosition=right;points=[];portConstraint=eastwest;strokeColor=inherit;" vertex="1" parent="1">
          <mxGeometry x="216" y="387" width="81.5" height="8" as="geometry" />
        </mxCell>
        <mxCell id="2D_hl_5wQOb8C5rat_Qo-54" value="" style="endArrow=open;endFill=1;endSize=12;html=1;rounded=0;" edge="1" parent="1">
          <mxGeometry width="160" relative="1" as="geometry">
            <mxPoint x="277" y="628" as="sourcePoint" />
            <mxPoint x="411" y="628.5" as="targetPoint" />
          </mxGeometry>
        </mxCell>
        <mxCell id="2D_hl_5wQOb8C5rat_Qo-55" value="Gerar Venda" style="rounded=1;whiteSpace=wrap;html=1;" vertex="1" parent="1">
          <mxGeometry x="410" y="597" width="120" height="60" as="geometry" />
        </mxCell>
        <mxCell id="2D_hl_5wQOb8C5rat_Qo-56" value="" style="endArrow=open;endFill=1;endSize=12;html=1;rounded=0;" edge="1" parent="1">
          <mxGeometry width="160" relative="1" as="geometry">
            <mxPoint x="530" y="628" as="sourcePoint" />
            <mxPoint x="622" y="629" as="targetPoint" />
          </mxGeometry>
        </mxCell>
        <mxCell id="2D_hl_5wQOb8C5rat_Qo-58" value="" style="ellipse;html=1;shape=endState;fillColor=#000000;strokeColor=#ff0000;" vertex="1" parent="1">
          <mxGeometry x="621" y="609" width="40" height="36" as="geometry" />
        </mxCell>
      </root>
    </mxGraphModel>
  </diagram>
</mxfile>
